<?xml version="1.0" encoding="UTF-8"?>
<svg width="9px" height="5px" viewBox="0 0 9 5" version="1.1" xmlns="http://www.w3.org/2000/svg" xmlns:xlink="http://www.w3.org/1999/xlink">
    <title>编组 19@2x</title>
    <g id="页面-1" stroke="none" stroke-width="1" fill="none" fill-rule="evenodd">
        <g id="品牌大盘首页" transform="translate(-336.000000, -642.000000)" fill="#B2B2B2" fill-rule="nonzero">
            <g id="编组-18" transform="translate(15.000000, 589.000000)">
                <g id="编组-21" transform="translate(15.000000, 47.000000)">
                    <g id="编组-19" transform="translate(306.000000, 6.000000)">
                        <path d="M4.5,3.49113803 L1.09728194,0.183043198 C0.846263516,-0.0609953987 0.43928224,-0.0609953987 0.188263817,0.183043198 C-0.0627546057,0.427081794 -0.0627546057,0.822746536 0.188263817,1.06678513 L4.04548361,4.81675095 C4.16595579,4.9340726 4.32947424,5 4.5,5 C4.6705111,5 4.83402955,4.9340726 4.95450173,4.81675095 C5.9358914,3.86264983 6.67193366,3.14707399 7.16262849,2.67002343 C7.52909361,2.31374825 8.07879129,1.77933549 8.81172152,1.06678513 C8.97410198,0.908919843 9.03751877,0.678826162 8.97808341,0.463178156 C8.91864804,0.247530151 8.74539016,0.079089885 8.52357434,0.0213071792 C8.30175851,-0.0364755267 8.06508385,0.0251778958 7.9027034,0.183043198 L4.5,3.49113803 Z" id="路径"></path>
                    </g>
                </g>
            </g>
        </g>
    </g>
</svg>